
<svg width="48" height="49" viewBox="0 0 48 49" fill="none" xmlns="http://www.w3.org/2000/svg">
    <path d="M0 24.5C0 11.2452 10.7452 0.5 24 0.5V0.5C37.2548 0.5 48 11.2452 48 24.5V24.5C48 37.7548 37.2548 48.5 24 48.5V48.5C10.7452 48.5 0 37.7548 0 24.5V24.5Z" fill="url(#paint0_linear_2425_2204)"/>
    <path d="M15.36 36.9799H23.8777C29.2819 36.9799 32.64 33.9762 32.64 29.6224C32.64 25.2574 29.2819 22.4562 23.8777 22.4562H20.1748V17.9562H30.4717V13.9399H15.36V36.9799ZM20.1748 33.0649V26.3037H23.8777C26.4575 26.3037 27.8697 27.7437 27.8697 29.5774C27.8697 31.4674 26.4575 33.0649 23.8777 33.0649H20.1748Z" fill="white"/>
    <defs>
    <linearGradient id="paint0_linear_2425_2204" x1="0" y1="0.5" x2="48" y2="48.5" gradientUnits="userSpaceOnUse">
    <stop stop-color="#6FC958"/>
    <stop offset="0.972755" stop-color="#17A3C0"/>
    </linearGradient>
    </defs>
    </svg>